<?xml version="1.0" standalone="no"?>
<!DOCTYPE svg PUBLIC "-//W3C//DTD SVG 20010904//EN"
 "http://www.w3.org/TR/2001/REC-SVG-20010904/DTD/svg10.dtd">
<svg version="1.0" xmlns="http://www.w3.org/2000/svg"
 width="1280.000000pt" height="894.000000pt" viewBox="0 0 1280.000000 894.000000"
 preserveAspectRatio="xMidYMid meet">

<g transform="translate(0.000000,894.000000) scale(0.100000,-0.100000)"
fill="#000000" stroke="none">
<path d="M9815 7472 c-70 -24 -126 -59 -229 -141 -48 -39 -103 -80 -122 -92
-19 -11 -34 -27 -34 -34 0 -14 19 -18 152 -36 118 -15 133 -7 281 156 157 173
154 165 70 165 -38 -1 -90 -8 -118 -18z"/>
<path d="M8784 7181 c-39 -11 -107 -37 -150 -58 l-79 -38 0 -44 c0 -68 17 -76
255 -116 113 -18 261 -41 330 -51 191 -28 186 -24 297 -243 98 -195 119 -225
170 -247 37 -16 89 -18 97 -5 4 5 -15 100 -41 210 -43 185 -46 203 -31 217 15
15 36 15 255 1 271 -18 280 -17 373 45 83 55 242 207 238 227 -5 24 -48 41
-106 41 -42 0 -68 -8 -132 -41 -52 -26 -99 -42 -133 -46 -38 -3 -188 18 -542
78 -559 93 -676 104 -801 70z"/>
<path d="M10585 6766 c153 -29 227 -49 345 -93 387 -144 666 -392 830 -735
181 -381 149 -860 -80 -1198 -56 -82 -167 -199 -249 -261 -238 -179 -608 -282
-1066 -295 -623 -19 -1307 99 -2747 475 -191 50 -357 93 -370 95 -13 3 -99 26
-193 51 -403 110 -1149 289 -1580 380 -1368 290 -2486 346 -3362 169 -608
-122 -1153 -353 -1565 -661 -61 -46 -114 -83 -119 -83 -5 0 -9 -4 -9 -10 0 -5
2 -10 3 -10 2 0 87 40 188 89 1246 602 2652 673 4644 235 467 -103 828 -196
1785 -459 1682 -463 2186 -566 2855 -582 470 -11 833 40 1164 164 235 88 404
194 572 362 262 263 390 567 390 931 0 405 -139 733 -429 1012 -165 158 -378
284 -602 357 -125 40 -386 91 -464 90 -59 -1 -57 -2 59 -23z"/>
<path d="M3643 6205 c-293 -53 -471 -207 -557 -484 -15 -46 -25 -85 -24 -86 2
-1 143 -5 313 -7 l311 -5 18 43 c22 54 74 101 121 110 20 3 61 4 91 2 82 -7
128 -48 162 -143 l18 -50 154 -17 c85 -10 228 -28 318 -41 l163 -24 -7 46
c-47 325 -210 542 -469 625 -142 45 -448 61 -612 31z"/>
<path d="M10105 6213 c-199 -31 -344 -100 -450 -214 -72 -78 -108 -142 -145
-256 -58 -181 -63 -229 -67 -795 -5 -495 -4 -516 14 -522 44 -13 533 -66 615
-66 4 0 9 280 11 623 3 675 2 662 60 733 39 46 81 64 154 64 90 -1 134 -26
169 -96 29 -58 29 -59 32 -291 l4 -233 305 0 305 0 -4 228 c-5 204 -8 237 -31
325 -39 146 -78 219 -167 308 -85 86 -173 135 -305 170 -66 18 -114 22 -275
24 -107 2 -208 1 -225 -2z"/>
<path d="M6491 6180 c-5 -3 -32 -122 -61 -265 -29 -143 -74 -366 -100 -495
-27 -129 -48 -235 -47 -236 8 -5 372 -92 375 -90 1 2 9 34 16 72 l14 69 1 -76
1 -76 233 -60 c127 -33 232 -60 232 -59 1 10 -22 1212 -23 1213 -4 5 -634 8
-641 3z"/>
<path d="M990 5675 c0 -278 2 -505 4 -505 2 0 46 20 98 44 105 49 345 142 456
177 l72 23 0 173 0 173 145 0 c206 0 268 -26 324 -137 12 -23 21 -49 21 -58 0
-26 20 -26 144 -6 65 11 192 28 282 38 191 20 181 10 139 142 -61 191 -204
323 -417 385 -174 50 -255 56 -782 56 l-486 0 0 -505z"/>
<path d="M5156 5809 c-4 -204 -6 -373 -3 -375 2 -2 113 -26 248 -53 134 -27
325 -68 423 -90 99 -23 181 -39 183 -37 4 4 -10 81 -106 591 -34 176 -61 323
-61 327 0 5 -152 8 -338 8 l-339 0 -7 -371z"/>
<path d="M7990 6171 c0 -4 -29 -161 -64 -347 -35 -186 -92 -489 -127 -671 -34
-183 -59 -336 -56 -340 13 -12 501 -133 508 -125 3 4 28 170 55 369 26 199 49
361 50 360 1 -1 26 -179 55 -395 l53 -392 36 -10 c73 -19 486 -110 503 -110 9
0 17 3 17 6 0 4 -47 262 -106 573 -58 311 -125 674 -150 806 -24 132 -47 250
-49 263 l-5 22 -360 0 c-198 0 -360 -4 -360 -9z"/>
<path d="M3030 4568 c0 -493 7 -590 55 -753 40 -136 87 -218 176 -307 59 -59
95 -85 160 -116 146 -70 310 -98 519 -89 276 13 431 69 571 207 63 62 84 92
122 170 49 103 80 216 97 350 8 70 15 810 8 810 -2 0 -39 7 -83 15 -100 20
-514 85 -537 85 -16 0 -17 -39 -21 -502 -2 -355 -7 -514 -15 -539 -17 -52 -52
-100 -92 -127 -31 -21 -44 -23 -117 -20 -94 4 -124 19 -161 85 -36 65 -41 156
-42 669 l0 482 -67 6 c-89 9 -431 26 -510 26 l-63 0 0 -452z"/>
<path d="M2475 4999 c-487 -42 -938 -140 -1362 -296 l-123 -45 0 -659 0 -659
315 0 315 0 0 640 0 640 89 0 89 0 16 -67 c8 -38 76 -315 150 -618 75 -302
138 -560 141 -572 l5 -23 326 0 c305 0 325 1 320 18 -3 9 -89 312 -191 672
-102 360 -188 662 -191 671 -3 12 11 26 52 48 96 55 194 162 218 239 8 25 6
26 -169 11z"/>
<path d="M5136 4578 c-3 -101 -8 -381 -11 -623 -3 -242 -8 -479 -11 -527 l-6
-88 230 0 229 0 6 303 c4 166 10 462 14 658 l6 355 -209 48 c-115 26 -216 49
-225 52 -14 4 -17 -16 -23 -178z"/>
<path d="M5842 3983 c64 -351 118 -639 118 -640 0 -2 89 -3 198 -3 l197 0 93
531 c51 293 91 533 89 536 -8 7 -782 213 -803 213 -6 0 43 -287 108 -637z"/>
<path d="M10500 4380 c0 -12 63 -12 135 0 45 7 40 7 -42 9 -56 0 -93 -3 -93
-9z"/>
<path d="M6710 4334 c0 -22 29 -981 30 -991 0 -2 99 -3 220 -3 l220 0 0 163
c0 90 -3 292 -7 449 l-6 285 -211 58 c-116 32 -219 60 -228 63 -14 3 -18 -2
-18 -24z"/>
<path d="M7536 3756 c-38 -199 -70 -373 -73 -388 l-5 -28 295 0 295 0 6 28 c3
15 24 140 46 277 22 138 42 260 45 273 5 20 12 22 68 23 57 0 41 6 -218 73
-154 40 -305 80 -336 88 l-55 15 -68 -361z"/>
<path d="M8580 3861 c0 -5 18 -122 40 -260 22 -138 40 -253 40 -256 0 -3 131
-5 291 -5 l291 0 -5 23 c-3 12 -20 103 -38 202 -18 99 -35 183 -39 187 -3 4
-82 21 -175 38 -94 17 -221 42 -283 55 -131 29 -122 28 -122 16z"/>
<path d="M11049 3846 c-10 -11 -223 -67 -339 -90 -213 -43 -393 -59 -665 -60
-137 -1 -308 3 -379 7 -147 9 -141 15 -83 -81 89 -149 251 -255 457 -299 107
-22 390 -25 495 -4 213 42 374 148 464 304 27 48 81 191 81 216 0 11 -22 15
-31 7z"/>
<path d="M2673 3080 c-106 -22 -171 -82 -198 -183 -14 -53 -16 -106 -13 -357
3 -274 4 -298 24 -340 49 -106 153 -157 302 -147 182 11 262 110 262 324 l0
63 -110 0 -110 0 0 -85 c0 -113 -15 -145 -69 -145 -26 0 -44 7 -57 21 -18 20
-19 40 -19 339 0 299 1 319 19 339 19 21 70 28 92 13 24 -16 34 -54 34 -131
l0 -81 111 0 112 0 -6 94 c-6 100 -31 178 -70 215 -57 53 -204 82 -304 61z"/>
<path d="M5750 2565 l0 -505 103 0 102 0 0 505 0 505 -102 0 -103 0 0 -505z"/>
<path d="M6420 2565 l0 -505 225 0 225 0 0 75 0 75 -115 0 -115 0 0 430 0 430
-110 0 -110 0 0 -505z"/>
<path d="M9870 2904 l0 -165 -28 20 c-69 49 -174 48 -219 -1 -53 -59 -58 -79
-61 -303 -3 -138 0 -228 8 -263 29 -132 152 -179 260 -101 l40 29 0 -30 0 -30
100 0 100 0 0 505 0 505 -100 0 -100 0 0 -166z m-16 -240 c14 -5 16 -36 16
-235 l0 -229 -26 -11 c-73 -27 -87 16 -82 262 2 139 6 190 17 202 14 17 47 22
75 11z"/>
<path d="M4380 2980 l0 -70 100 0 100 0 0 70 0 70 -100 0 -100 0 0 -70z"/>
<path d="M6950 2980 l0 -70 100 0 100 0 0 70 0 70 -100 0 -100 0 0 -70z"/>
<path d="M8220 2980 l0 -70 100 0 100 0 0 70 0 70 -100 0 -100 0 0 -70z"/>
<path d="M4730 2890 l0 -110 -35 0 -35 0 0 -65 0 -65 34 0 34 0 4 -237 c3
-217 5 -241 23 -272 36 -61 66 -76 166 -80 49 -1 101 0 114 3 24 6 25 10 25
84 l0 78 -40 -4 c-29 -3 -47 1 -60 13 -19 17 -20 32 -20 217 l0 198 50 0 50 0
0 65 0 65 -50 0 -50 0 0 110 0 110 -105 0 -105 0 0 -110z"/>
<path d="M8570 2890 l0 -110 -35 0 -35 0 0 -65 0 -65 34 0 35 0 3 -248 c3
-220 5 -251 21 -276 29 -44 89 -66 184 -66 115 0 113 -2 113 89 l0 77 -35 -4
c-22 -3 -45 2 -60 12 l-25 16 0 200 0 200 50 0 50 0 0 65 0 65 -50 0 -50 0 0
110 0 110 -100 0 -100 0 0 -110z"/>
<path d="M3330 2787 c-104 -29 -158 -93 -168 -198 l-5 -49 97 0 96 0 0 39 c0
40 20 71 45 71 24 0 45 -43 45 -91 l0 -46 -69 -27 c-127 -50 -193 -105 -220
-185 -23 -69 -8 -144 38 -195 72 -79 183 -71 236 17 l24 41 7 -52 7 -52 86 0
86 0 -3 277 c-2 285 -8 335 -44 386 -43 60 -165 90 -258 64z m94 -578 c-17
-19 -50 -25 -70 -11 -58 39 -30 154 50 203 l31 19 3 -96 c2 -79 0 -100 -14
-115z"/>
<path d="M4046 2786 c-22 -8 -52 -24 -68 -36 l-28 -21 0 26 0 25 -100 0 -100
0 0 -475 0 -475 100 0 100 0 0 145 0 144 51 -31 c40 -25 62 -32 104 -32 67 -1
101 21 135 90 25 48 25 54 25 279 0 225 0 231 -25 279 -14 28 -37 58 -51 69
-35 25 -95 30 -143 13z m-6 -126 c19 -19 20 -33 20 -230 0 -197 -1 -211 -20
-230 -23 -23 -30 -24 -65 -8 l-25 11 0 223 0 223 28 15 c35 20 38 20 62 -4z"/>
<path d="M5327 2789 c-54 -13 -91 -34 -121 -69 -26 -32 -56 -115 -56 -157 0
-22 2 -23 95 -23 l95 0 0 33 c0 36 24 77 45 77 29 0 45 -31 45 -85 l0 -53 -67
-27 c-159 -62 -227 -137 -227 -249 0 -37 7 -73 17 -92 53 -102 189 -123 252
-40 14 18 25 39 25 46 0 28 14 -3 19 -43 l6 -42 90 -3 91 -3 -7 73 c-4 40 -8
172 -9 293 0 191 -3 225 -19 260 -41 92 -151 133 -274 104z m87 -580 c-40 -44
-94 -10 -94 59 0 53 27 102 73 131 l32 20 3 -96 c2 -79 0 -99 -14 -114z"/>
<path d="M7569 2784 c-26 -7 -52 -21 -59 -29 -17 -21 -30 -19 -30 5 0 19 -7
20 -100 20 l-100 0 0 -360 0 -360 100 0 100 0 0 288 0 289 25 11 c35 16 51 15
69 -4 14 -13 16 -55 16 -300 l0 -284 95 0 95 0 0 284 c0 304 -1 298 53 311 56
15 57 10 57 -306 l0 -289 100 0 100 0 0 310 c0 337 -3 357 -55 398 -57 45
-148 37 -226 -20 -23 -16 -42 -28 -44 -26 -1 2 -7 13 -13 24 -14 26 -71 54
-109 53 -15 0 -49 -7 -74 -15z"/>
<path d="M9138 2787 c-83 -24 -136 -75 -157 -152 -14 -52 -14 -363 0 -420 26
-103 116 -160 249 -159 148 1 230 80 230 224 l0 60 -95 0 -95 0 0 -58 c0 -65
-11 -82 -52 -82 -38 0 -48 29 -48 131 l0 79 145 0 145 0 0 98 c0 108 -10 153
-43 203 -45 68 -178 104 -279 76z m120 -149 c7 -7 12 -38 12 -70 l0 -58 -50 0
-50 0 0 44 c0 68 14 96 48 96 15 0 33 -5 40 -12z"/>
<path d="M4380 2420 l0 -360 100 0 100 0 0 360 0 360 -100 0 -100 0 0 -360z"/>
<path d="M6950 2420 l0 -360 100 0 100 0 0 360 0 360 -100 0 -100 0 0 -360z"/>
<path d="M8220 2420 l0 -360 100 0 100 0 0 360 0 360 -100 0 -100 0 0 -360z"/>
<path d="M410 2460 l0 -50 935 0 935 0 0 50 0 50 -935 0 -935 0 0 -50z"/>
<path d="M10290 2460 l0 -50 875 0 875 0 0 50 0 50 -875 0 -875 0 0 -50z"/>
</g>
</svg>
